# AST/ASF file generated using VICON BodyLanguage
# -----------------------------------------------
:version 1.10
:name VICON
:units
  mass 1.0
  length 0.45
  angle deg
:documentation
   .ast/.asf automatically generated from VICON data using
   VICON BodyBuilder and BodyLanguage model FoxedUp or BRILLIANT.MOD
:root
   order TX TY TZ RX RY RZ
   axis XYZ
   position 0 0 0  
   orientation 0 -0 0 
:bonedata
  begin
     id 1 
     name lhipjoint
     direction 0.432694 -0.693742 0.575759 
     length 2.19277 
     axis 0 -0 0  XYZ
  end
  begin
     id 2 
     name lfemur
     direction 0.34202 -0.939693 0  
     length 6.69022  
     axis 0 -0 20  XYZ
    dof rx ry rz
    limits (-160.0 20.0)
           (-70.0 70.0)
           (-60.0 70.0)
  end
  begin
     id 3 
     name ltibia
     direction 0.34202 -0.939693 0   
     length 6.50337   
     axis 0 -0 20   XYZ
    dof rx
    limits (-10.0 170.0)
  end
  begin
     id 4 
     name lfoot
     direction 0.158999 -0.435969 0.885805   
     length 2.70564   
     axis -90 -1.13533e-015 20   XYZ
    dof rx rz
    limits (-45.0 90.0)
           (-70.0 20.0)
  end
  begin
     id 5 
     name ltoes
     direction -0.00592919 0.00964381 0.999936   
     length 1.29929   
     axis -90 -1.13533e-015 20   XYZ
    dof rx
    limits (-90.0 20.0)
  end
  begin
     id 6 
     name rhipjoint
     direction -0.414359 -0.700339 0.581234   
     length 2.17212  
     axis 0 -0 0  XYZ 
  end
  begin
     id 7 
     name rfemur
     direction -0.34202 -0.939693 0   
     length 7.17659   
     axis 0 -0 -20   XYZ
    dof rx ry rz
    limits (-160.0 20.0)
           (-70.0 70.0)
           (-70.0 60.0)
  end
  begin
     id 8 
     name rtibia
     direction -0.34202 -0.939693 0   
     length 6.36669   
     axis 0 -0 -20   XYZ
    dof rx
    limits (-10.0 170.0)
 end
 begin
     id 9 
     name rfoot
     direction -0.137064 -0.37658 0.916188   
     length 2.22351  
     axis -90 1.13533e-015 -20   XYZ
    dof rx rz
    limits (-45.0 90.0)
           (-20.0 70.0)
  end
  begin
     id 10 
     name rtoes
     direction -0.000784077 -0.00289101 0.999996   
     length 1.09522   
     axis -90 1.13533e-015 -20   XYZ
    dof rx
    limits (-90.0 20.0)
  end
  begin
     id 11 
     name lowerback
     direction -0.0176242 0.984912 -0.172157   
     length 1.65301   
     axis 0 -0 0   XYZ
    dof rx ry rz
    limits (-20.0 45.0)
           (-30.0 30.0)
           (-30.0 30.0)
  end
  begin
     id 12 
     name upperback
     direction -0.00218128 0.998776 -0.0494072   
     length 1.67776   
     axis 0 -0 0   XYZ
    dof rx ry rz
    limits (-20.0 45.0)
           (-30.0 30.0)
           (-30.0 30.0)
  end
  begin
     id 13 
     name thorax
     direction 0.00544186 0.999658 0.0255711   
     length 1.72293   
     axis 0 -0 0   XYZ
    dof rx ry rz
    limits (-20.0 45.0)
           (-30.0 30.0)
           (-30.0 30.0)
  end
  begin
     id 14 
     name lowerneck
     direction -0.105325 0.983841 0.144785   
     length 2.14226   
     axis 0 -0 0   XYZ
    dof rx ry rz
    limits (-20.0 45.0)
           (-30.0 30.0)
           (-30.0 30.0)
  end
  begin
     id 15 
     name upperneck
     direction 0.0547957 0.988053 -0.144041   
     length 2.17508   
     axis 0 -0 0   XYZ
    dof rx ry rz
    limits (-20.0 45.0)
           (-30.0 30.0)
           (-30.0 30.0)
  end
  begin
     id 16
     name head
     direction 0.0247488 0.997534 -0.0656813  
     length 2.20048  
     axis 0 -0 0   XYZ
    dof rx ry rz
    limits (-20.0 45.0)
           (-30.0 30.0)
           (-30.0 30.0)
  end
  begin
     id 17 
     name lclavicle
     direction 0.820559 0.567247 -0.0701026  
     length 4.09615  
     axis 0 -0 0   XYZ
    dof ry rz
    limits (-20.0 10.0)
           (0.0 20.0)
  end
  begin
     id 18 
     name lhumerus
     direction 0.999977 -0.0067566 -9.96392e-005   
     length 4.59333   
     axis -180 -30 -90   XYZ
    dof rx ry rz
    limits (-60.0 90.0)
           (-90.0 90.0)
           (-90.0 90.0)
  end
  begin
     id 19
     name lradius
     direction 1 -4.48982e-011 -2.53425e-027   
     length 2.81151   
     axis -180 -30 -90   XYZ
    dof rx
    limits (-10.0 170.0)
  end
  begin
     id 20
     name lwrist
     direction 1 -4.48939e-011 -7.39254e-028   
     length 1.40576   
     axis 2.56395e-016 90 90   XYZ
    dof ry
    limits (-180.0 0.0)
 end
  begin
     id 21 
     name lhand
     direction 1 -4.48939e-011 -1.47851e-027   
     length 0.895651   
     axis 9.43423e-016 90 90   XYZ
    dof rx rz
    limits (-90.0 90.0)
           (-45.0 45.0)
  end
  begin
     id 22 
     name lfingers
     direction 1 -4.48978e-011 -2.95702e-027   
     length 0.722097   
     axis 1.88685e-015 90 90   XYZ
    dof rx
    limits (0.0 90.0)
  end
  begin
     id 23
     name lthumb
     direction 0.707107 -6.34931e-011 0.707107   
     length 1.03679   
     axis -90 45 -9.86935e-015   XYZ
    dof rx rz
    limits (-45.0 45.0)
           (-45.0 45.0)
  end
  begin
     id 24 
     name rclavicle
     direction -0.831414 0.553102 -0.0531864   
     length 4.24872  
     axis 0 -0 0   XYZ 
    dof ry rz
    limits (-10.0 20.0)
           (-20.0 0.0)
  end
  begin
     id 25 
     name rhumerus
     direction -0.999916 -0.000939607 0.0129331  
     length 4.74834   
     axis -180 30 90   XYZ
    dof rx ry rz
    limits (-90.0 60.0)
           (-90.0 90.0)
           (-90.0 90.0)
  end
  begin
     id 26 
     name rradius
     direction -1 -4.48956e-011 -1.31752e-027   
     length 2.79907   
     axis -180 30 90   XYZ
    dof rx
    limits (-10.0 170.0)
  end
  begin
     id 27 
     name rwrist
     direction -1 -4.4897e-011 -7.39254e-028   
     length 1.39954   
     axis 2.56395e-016 -90 -90   XYZ
    dof ry
    limits (-180.0 0.0)
  end
  begin
     id 28
     name rhand
     direction -0.999997 -0.00250697 0.000800838   
     length 0.953304   
     axis 9.43423e-016 -90 -90   XYZ
    dof rx rz
    limits (-90.0 90.0)
           (-45.0 45.0)
  end
  begin
     id 29
     name rfingers
     direction -1 -4.48954e-011 -2.95702e-027   
     length 0.763342   
     axis 1.88685e-015 -90 -90   XYZ
    dof rx
    limits (0.0 90.0)
  end
  begin
     id 30
     name rthumb
     direction -0.709701 -0.00217037 0.7045   
     length 1.10115   
     axis -90 -45 9.86935e-015   XYZ
    dof rx rz
    limits (-45.0 45.0)
           (-45.0 45.0)
  end
:hierarchy
  begin
    root lhipjoint rhipjoint lowerback
    lhipjoint lfemur
    lfemur ltibia
    ltibia lfoot
    lfoot ltoes
    rhipjoint rfemur
    rfemur rtibia
    rtibia rfoot
    rfoot rtoes
    lowerback upperback
    upperback thorax
    thorax lowerneck lclavicle rclavicle
    lowerneck upperneck
    upperneck head
    lclavicle lhumerus
    lhumerus lradius
    lradius lwrist
    lwrist lhand lthumb
    lhand lfingers
    rclavicle rhumerus
    rhumerus rradius
    rradius rwrist
    rwrist rhand rthumb
    rhand rfingers
  end

#!OML:ASF G:\ViconDB\ViconDB\414\test\team2\shane.ASF
:FULLY-SPECIFIED
:DEGREES
79
root 4.87668 16.1363 -21.2752 8.86957 3.17869 -4.37206
lowerback 15.0648 -5.09555 -2.44518
upperback 6.06252 -6.89111 4.53448
thorax -1.08159 -3.55758 7.21041
lowerneck -20.0452 0.642194 -9.10203
upperneck 22.6423 1.9519 6.98796
head 10.3888 0.953398 4.31988
rclavicle 5.51627e-014 -2.78299e-014
rhumerus -79.1045 30.9061 -82.9461
rradius 73.4518
rwrist 31.9534
rhand -41.5949 -10.4063
rfingers 7.12502
rthumb -14.5048 -39.8793
lclavicle 2.72335e-014 -3.97569e-014
lhumerus -5.66714 -34.781 94.6206
lradius 85.5718
lwrist -22.3057
lhand -54.2259 7.93508
lfingers 7.12502
lthumb -26.6395 36.0808
rfemur -51.4264 -18.1765 31.4264
rtibia 54.7989
rfoot -25.9639 8.78074
rtoes -19.5051
lfemur 33.3237 -0.370408 -8.28143
ltibia 6.36111e-014
lfoot 18.6423 -21.3076
ltoes -18.1155
80
root 4.87151 16.1751 -20.8031 8.62764 2.58453 -4.12889
lowerback 15.1477 -4.97877 -2.44836
upperback 5.99985 -6.73893 4.50267
thorax -1.21775 -3.47543 7.17186
lowerneck -19.9912 0.652911 -9.05597
upperneck 22.8651 1.99064 6.80062
head 10.4599 0.946043 4.25641
rclavicle -7.4743e-014 2.22639e-014
rhumerus -77.2576 30.4519 -83.389
rradius 75.5065
rwrist 31.9614
rhand -42.521 -11.4477
rfingers 7.12502
rthumb -15.3971 -40.8543
lclavicle -7.4743e-014 2.22639e-014
lhumerus 32.3921 36.9582 -71.6558
lradius 106.044
lwrist 142.86
lhand -68.9027 62.4341
lfingers 7.12502
lthumb -40.5784 87.483
rfemur -51.1756 -20.1418 32.7556
rtibia 52.7452
rfoot -25.5348 9.45912
rtoes -19.1711
lfemur 34.7725 -0.345611 -8.85728
ltibia -5.725e-014
lfoot 20.3907 -18.8828
ltoes -10.2297
81
root 4.85693 16.1917 -20.3285 8.27682 2.04802 -3.86939
lowerback 15.18 -4.81701 -2.44441
upperback 6.05762 -6.53084 4.3965
thorax -1.21727 -3.3706 7.02782
lowerneck -19.93 0.63907 -8.73897
upperneck 22.8447 1.97502 6.37938
head 10.4535 0.914626 4.0454
rclavicle 6.87298e-014 -4.31363e-014
rhumerus -74.9958 29.5205 -84.0682
rradius 77.4563
rwrist 30.9475
rhand -43.0194 -12.4286
rfingers 7.12502
rthumb -15.8771 -41.7977
lclavicle 6.87298e-014 -4.31363e-014
lhumerus 32.4971 36.3094 -72.0669
lradius 108.065
lwrist 143.697
lhand -68.7745 60.6116
lfingers 7.12502
lthumb -40.4579 85.6978
rfemur -50.6326 -21.9137 33.7265
rtibia 51.7452
rfoot -25.099 8.84612
rtoes -18.6133
lfemur 36.2902 -0.409805 -9.41033
ltibia -3.49861e-014
lfoot 19.4727 -15.6335
ltoes -9.45881
82
root 4.84929 16.1859 -19.8635 7.94713 1.62163 -3.83795
lowerback 15.1974 -4.65826 -2.13031
upperback 6.07708 -6.27873 4.41157
thorax -1.27493 -3.23783 6.83359
lowerneck -19.5726 0.54456 -8.68699
upperneck 22.5449 1.88344 6.05606
head 10.2922 0.841778 3.8888
rclavicle -1.83876e-014 2.68856e-014
rhumerus -72.492 28.6267 -84.5687
rradius 79.2029
rwrist 30.0528
rhand -43.5129 -13.2994
rfingers 7.12502
rthumb -16.3522 -42.63
lclavicle -1.83876e-014 2.68856e-014
lhumerus 33.0497 35.9117 -72.2557
lradius 110.012
lwrist 145.705
lhand -68.6501 58.1262
lfingers 7.12502
lthumb -40.3409 83.2485
rfemur -49.9125 -23.3357 34.5557
rtibia 51.5789
rfoot -24.49 7.22182
rtoes -17.7021
lfemur 32.1493 -0.517353 -9.63725
ltibia 11.7965
lfoot 12.381 -12.1593
ltoes -11.6025
83
root 4.84301 16.1615 -19.4025 7.54807 1.07653 -3.64417
lowerback 15.2296 -4.3895 -1.89629
upperback 6.18793 -5.89833 4.30058
thorax -1.26327 -3.04363 6.5267
lowerneck -19.3861 0.383794 -8.35267
upperneck 22.304 1.67462 5.5424
head 10.2 0.716635 3.60792
rclavicle -3.43866e-014 1.98909e-014
rhumerus -69.421 27.1815 -84.9184
rradius 80.2914
rwrist 30.8104
rhand -43.9441 -14.3724
rfingers 7.12502
rthumb -16.7674 -43.6684
lclavicle -3.43866e-014 1.98909e-014
lhumerus 33.7136 35.6119 -72.3297
lradius 112.332
lwrist 147.448
lhand -68.6225 57.7081
lfingers 7.12502
lthumb -40.3149 82.8384
rfemur -48.6895 -24.057 34.4551
rtibia 51.9585
rfoot -23.6218 5.6833
rtoes -17.5899
lfemur 29.3483 -0.383906 -9.88979
ltibia 20.7627
lfoot 8.1024 -9.58623
ltoes -11.5392
